# AST/ASF file generated using VICON BodyLanguage
# -----------------------------------------------
:version 1.10
:name VICON
:units
  mass 1.0
  length 0.45
  angle deg
:documentation
   .ast/.asf automatically generated from VICON data using
   VICON BodyBuilder and BodyLanguage model FoxedUp or BRILLIANT.MOD
:root
   order TX TY TZ RX RY RZ
   axis XYZ
   position 0 0 0  
   orientation 0 0 0 
:bonedata
  begin
     id 1 
     name lhipjoint
     direction 0.645893 -0.654526 0.392961 
     length 2.38111 
     axis 0 0 0  XYZ
  end
  begin
     id 2 
     name lfemur
     direction 0.34202 -0.939693 0  
     length 6.6822  
     axis 0 0 20  XYZ
    dof rx ry rz
    limits (-160.0 20.0)
           (-70.0 70.0)
           (-60.0 70.0)
  end
  begin
     id 3 
     name ltibia
     direction 0.34202 -0.939693 0   
     length 6.93904   
     axis 0 0 20   XYZ
    dof rx
    limits (-10.0 170.0)
  end
  begin
     id 4 
     name lfoot
     direction 0.0694967 -0.190941 0.979138   
     length 2.13616   
     axis -90 7.62852e-016 20   XYZ
    dof rx rz
    limits (-45.0 90.0)
           (-70.0 20.0)
  end
  begin
     id 5 
     name ltoes
     direction 1.535e-011 -4.2202e-011 1   
     length 1.07536   
     axis -90 7.62852e-016 20   XYZ
    dof rx
    limits (-90.0 20.0)
  end
  begin
     id 6 
     name rhipjoint
     direction -0.700219 -0.612087 0.367481   
     length 2.54621  
     axis 0 0 0  XYZ 
  end
  begin
     id 7 
     name rfemur
     direction -0.34202 -0.939693 0   
     length 6.55353   
     axis 0 0 -20   XYZ
    dof rx ry rz
    limits (-160.0 20.0)
           (-70.0 70.0)
           (-70.0 60.0)
  end
  begin
     id 8 
     name rtibia
     direction -0.34202 -0.939693 0   
     length 6.8736   
     axis 0 0 -20   XYZ
    dof rx
    limits (-10.0 170.0)
 end
 begin
     id 9 
     name rfoot
     direction -0.0679995 -0.186827 0.980037   
     length 2.1218  
     axis -90 -7.62852e-016 -20   XYZ
    dof rx rz
    limits (-45.0 90.0)
           (-20.0 70.0)
  end
  begin
     id 10 
     name rtoes
     direction -1.53589e-011 -4.21772e-011 1   
     length 1.06864   
     axis -90 -7.62852e-016 -20   XYZ
    dof rx
    limits (-90.0 20.0)
  end
  begin
     id 11 
     name lowerback
     direction -0.0416607 0.996347 -0.0745409   
     length 2.12205   
     axis 0 0 0   XYZ
    dof rx ry rz
    limits (-20.0 45.0)
           (-30.0 30.0)
           (-30.0 30.0)
  end
  begin
     id 12 
     name upperback
     direction -0.000153993 0.999276 -0.0380568   
     length 2.12759   
     axis 0 0 0   XYZ
    dof rx ry rz
    limits (-20.0 45.0)
           (-30.0 30.0)
           (-30.0 30.0)
  end
  begin
     id 13 
     name thorax
     direction 0.0187671 0.999821 -0.00241421   
     length 2.13704   
     axis 0 0 0   XYZ
    dof rx ry rz
    limits (-20.0 45.0)
           (-30.0 30.0)
           (-30.0 30.0)
  end
  begin
     id 14 
     name lowerneck
     direction 0.0268157 0.964865 0.261374   
     length 1.65253   
     axis 0 0 0   XYZ
    dof rx ry rz
    limits (-20.0 45.0)
           (-30.0 30.0)
           (-30.0 30.0)
  end
  begin
     id 15 
     name upperneck
     direction 0.00263774 0.939908 -0.341418   
     length 1.72375   
     axis 0 0 0   XYZ
    dof rx ry rz
    limits (-20.0 45.0)
           (-30.0 30.0)
           (-30.0 30.0)
  end
  begin
     id 16
     name head
     direction -0.00526001 0.989001 -0.147818  
     length 1.74878  
     axis 0 0 0   XYZ
    dof rx ry rz
    limits (-20.0 45.0)
           (-30.0 30.0)
           (-30.0 30.0)
  end
  begin
     id 17 
     name lclavicle
     direction 0.881214 0.461162 -0.103884  
     length 3.25108  
     axis 0 0 0   XYZ
    dof ry rz
    limits (-20.0 10.0)
           (0.0 20.0)
  end
  begin
     id 18 
     name lhumerus
     direction 1 -4.4899e-011 3.38092e-027   
     length 4.87408   
     axis 180 -30 -90   XYZ
    dof rx ry rz
    limits (-60.0 90.0)
           (-90.0 90.0)
           (-90.0 90.0)
  end
  begin
     id 19
     name lradius
     direction 1 -4.48931e-011 9.96288e-027   
     length 2.76729   
     axis 180 -30 -90   XYZ
    dof rx
    limits (-10.0 170.0)
  end
  begin
     id 20
     name lwrist
     direction 1 -4.4896e-011 1.50617e-026   
     length 1.38364   
     axis -9.31234e-015 90 90   XYZ
    dof ry
    limits (-180.0 0.0)
 end
  begin
     id 21 
     name lhand
     direction 1 -4.49038e-011 3.01286e-026   
     length 0.98922   
     axis -1.92217e-014 90 90   XYZ
    dof rx rz
    limits (-90.0 90.0)
           (-45.0 45.0)
  end
  begin
     id 22 
     name lfingers
     direction 1 -4.49051e-011 6.02588e-026   
     length 0.797535   
     axis -3.84436e-014 90 90   XYZ
    dof rx
    limits (0.0 90.0)
  end
  begin
     id 23
     name lthumb
     direction 0.707107 -6.34901e-011 0.707107   
     length 1.14511   
     axis -90 45 2.19363e-014   XYZ
    dof rx rz
    limits (-45.0 45.0)
           (-45.0 45.0)
  end
  begin
     id 24 
     name rclavicle
     direction -0.893894 0.441652 -0.0767889   
     length 3.29361  
     axis 0 0 0   XYZ 
    dof ry rz
    limits (-10.0 20.0)
           (-20.0 0.0)
  end
  begin
     id 25 
     name rhumerus
     direction -1 -4.48945e-011 8.0491e-028  
     length 4.71404   
     axis 180 30 90   XYZ
    dof rx ry rz
    limits (-90.0 60.0)
           (-90.0 90.0)
           (-90.0 90.0)
  end
  begin
     id 26 
     name rradius
     direction -1 -4.48986e-011 9.27795e-027   
     length 2.83468   
     axis 180 30 90   XYZ
    dof rx
    limits (-10.0 170.0)
  end
  begin
     id 27 
     name rwrist
     direction -1 -4.49029e-011 1.5064e-026   
     length 1.41734   
     axis -9.31234e-015 -90 -90   XYZ
    dof ry
    limits (-180.0 0.0)
  end
  begin
     id 28
     name rhand
     direction -1 -4.48857e-011 3.01165e-026   
     length 0.868195   
     axis -1.92217e-014 -90 -90   XYZ
    dof rx rz
    limits (-90.0 90.0)
           (-45.0 45.0)
  end
  begin
     id 29
     name rfingers
     direction -1 -4.49048e-011 6.02585e-026   
     length 0.699961   
     axis -3.84436e-014 -90 -90   XYZ
    dof rx
    limits (0.0 90.0)
  end
  begin
     id 30
     name rthumb
     direction -0.707107 -6.34854e-011 0.707107   
     length 1.00501   
     axis -90 -45 -2.19363e-014   XYZ
    dof rx rz
    limits (-45.0 45.0)
           (-45.0 45.0)
  end
:hierarchy
  begin
    root lhipjoint rhipjoint lowerback
    lhipjoint lfemur
    lfemur ltibia
    ltibia lfoot
    lfoot ltoes
    rhipjoint rfemur
    rfemur rtibia
    rtibia rfoot
    rfoot rtoes
    lowerback upperback
    upperback thorax
    thorax lowerneck lclavicle rclavicle
    lowerneck upperneck
    upperneck head
    lclavicle lhumerus
    lhumerus lradius
    lradius lwrist
    lwrist lhand lthumb
    lhand lfingers
    rclavicle rhumerus
    rhumerus rradius
    rradius rwrist
    rwrist rhand rthumb
    rhand rfingers
  end

#!OML:ASF H:\ManfredObstacles\Project 1\Capture day 2\Session 1\male.ASF
:FULLY-SPECIFIED
:DEGREES
39
root 1.52425 15.626 27.5942 -174.702 -4.88471 -182.991
lowerback 6.88347 -1.96962 -6.75496
upperback 6.63084 -3.6036 1.41958
thorax 3.55637 -2.40005 5.3714
lowerneck -28.9483 -1.50356 2.66935
upperneck 44.1437 2.10163 -2.05514
head 25.0811 2.21927 -0.517428
rclavicle 3.70733e-014 -3.18055e-015
rhumerus -39.4294 -6.11524 -71.713
rradius 38.5807
rwrist 18.6272
rhand -8.53907 -5.59109
rfingers 7.12502
rthumb 17.3901 -34.8332
lclavicle 3.70733e-014 -3.18055e-015
lhumerus -35.0478 -26.7588 91.6914
lradius 80.0931
lwrist -27.6165
lhand -12.2793 1.25521
lfingers 7.12502
lthumb 13.7878 30.7783
rfemur -46.0172 2.28327 12.6759
rtibia 31.2998
rfoot 22.1301 -18.3704
rtoes -18.5761
lfemur -3.22081 -5.36176 -26.4862
ltibia 28.3399
lfoot -1.1142 25.3764
ltoes -4.55353
40
root 1.54152 15.6344 27.4149 -174.574 -5.22413 -183.052
lowerback 6.92216 -2.02275 -6.61196
upperback 6.76481 -3.69309 1.50221
thorax 3.68504 -2.4588 5.37644
lowerneck -28.9086 -1.5524 2.52214
upperneck 44.1497 2.13133 -2.04789
head 25.0697 2.20354 -0.475758
rclavicle -1.39149e-015 1.2921e-014
rhumerus -39.1569 -7.02321 -70.983
rradius 37.1186
rwrist 19.4274
rhand -8.1756 -5.51879
rfingers 7.12502
rthumb 17.7399 -34.7296
lclavicle -1.39149e-015 1.2921e-014
lhumerus -34.2813 -26.9516 91.5183
lradius 79.3573
lwrist -28.0857
lhand -11.9671 1.15676
lfingers 7.12502
lthumb 14.0887 30.6592
rfemur -45.5916 2.36583 12.2763
rtibia 29.0815
rfoot 22.9534 -18.3389
rtoes -18.3088
lfemur -2.22548 -5.19457 -26.3397
ltibia 27.4589
lfoot -1.0973 24.7713
ltoes -5.28784
41
root 1.55988 15.6357 27.2364 -174.499 -5.58071 -183.106
lowerback 7.05655 -2.07733 -6.4227
upperback 6.87173 -3.78757 1.5585
thorax 3.72669 -2.51288 5.33446
lowerneck -28.8482 -1.59095 2.43904
upperneck 44.1683 2.16853 -2.07447
head 25.0652 2.20143 -0.463049
rclavicle -1.63997e-014 3.00165e-014
rhumerus -38.9602 -7.97051 -70.2746
rradius 35.6727
rwrist 20.3717
rhand -7.84922 -5.37313
rfingers 7.12502
rthumb 18.0539 -34.5552
lclavicle -1.63997e-014 3.00165e-014
lhumerus -33.6257 -27.1522 91.3723
lradius 78.6319
lwrist -28.1285
lhand -11.7012 1.11613
lfingers 7.12502
lthumb 14.3449 30.6005
rfemur -45.1491 2.45688 11.9006
rtibia 27.2707
rfoot 23.8168 -18.7225
rtoes -17.8534
lfemur -1.31169 -5.07205 -26.1799
ltibia 26.8487
lfoot -1.09308 24.209
ltoes -6.06274
42
root 1.57972 15.6291 27.0584 -174.467 -5.93945 -183.164
lowerback 7.23153 -2.11666 -6.24972
upperback 6.98555 -3.86765 1.62387
thorax 3.7528 -2.56159 5.31326
lowerneck -28.8014 -1.64293 2.31999
upperneck 44.1929 2.20253 -2.09162
head 25.072 2.19321 -0.438376
rclavicle 1.48095e-014 1.19271e-015
rhumerus -38.7764 -8.93856 -69.5466
rradius 34.2564
rwrist 21.4147
rhand -7.57123 -5.20442
rfingers 7.12502
rthumb 18.3214 -34.3616
lclavicle 1.48095e-014 1.19271e-015
lhumerus -32.9812 -27.3459 91.272
lradius 77.9263
lwrist -27.7775
lhand -11.3185 1.21423
lfingers 7.12502
lthumb 14.7136 30.6721
rfemur -44.7127 2.54788 11.5605
rtibia 25.8833
rfoot 24.7505 -19.4758
rtoes -17.2231
lfemur -0.52889 -4.98705 -26.0181
ltibia 26.5866
lfoot -1.10468 23.7072
ltoes -6.8705
43
root 1.60131 15.6144 26.8811 -174.459 -6.30669 -183.227
lowerback 7.43037 -2.14807 -6.09607
upperback 7.11008 -3.94239 1.69951
thorax 3.7786 -2.61039 5.31487
lowerneck -28.8169 -1.68668 2.22024
upperneck 44.2288 2.25978 -2.14787
head 25.1218 2.19099 -0.433321
rclavicle -3.18055e-014 8.15017e-015
rhumerus -38.5678 -9.95382 -68.7888
rradius 32.8228
rwrist 22.6366
rhand -7.39292 -4.95015
rfingers 7.12502
rthumb 18.4929 -34.0911
lclavicle -3.18055e-014 8.15017e-015
lhumerus -32.3106 -27.4575 91.1714
lradius 77.1797
lwrist -27.4602
lhand -10.8996 1.31046
lfingers 7.12502
lthumb 15.1172 30.7384
rfemur -44.3017 2.5931 11.2856
rtibia 24.9112
rfoot 25.6637 -20.5196
rtoes -16.4106
lfemur 0.0628721 -4.92429 -25.8528
ltibia 26.743
lfoot -1.11634 23.2641
ltoes -7.74171
44
root 1.62462 15.5909 26.7044 -174.466 -6.67854 -183.3
lowerback 7.66041 -2.17196 -5.95609
upperback 7.22898 -4.00958 1.77239
thorax 3.78102 -2.65525 5.32358
lowerneck -28.8464 -1.72066 2.16833
upperneck 44.2711 2.3318 -2.24617
head 25.1885 2.19847 -0.457539
rclavicle 6.16232e-014 -2.98177e-014
rhumerus -38.3762 -11.0049 -68.0205
rradius 31.4072
rwrist 23.9778
rhand -7.30376 -4.67083
rfingers 7.12502
rthumb 18.5787 -33.8036
lclavicle 6.16232e-014 -2.98177e-014
lhumerus -31.6608 -27.4911 91.0737
lradius 76.4022
lwrist -27.2221
lhand -10.466 1.41872
lfingers 7.12502
lthumb 15.5348 30.8147
rfemur -43.9179 2.53383 11.1158
rtibia 24.3272
rfoot 26.5574 -21.5258
rtoes -15.6754
lfemur 0.424502 -4.84919 -25.6841
ltibia 27.3807
lfoot -1.1676 22.8731
ltoes -8.62185
45
root 1.65008 15.558 26.5285 -174.478 -7.05477 -183.377
lowerback 7.9208 -2.19243 -5.82584
upperback 7.34325 -4.07463 1.84587
thorax 3.76241 -2.69903 5.3408
lowerneck -28.9241 -1.74634 2.16763
upperneck 44.3336 2.41927 -2.39111
head 25.3034 2.21624 -0.514082
rclavicle 2.76311e-014 -2.3059e-014
rhumerus -38.1728 -12.0924 -67.2457
rradius 30.0051
rwrist 25.4497
rhand -7.28408 -4.38516
rfingers 7.12502
rthumb 18.5976 -33.5161
lclavicle 2.76311e-014 -2.3059e-014
lhumerus -31.0347 -27.4318 90.976
lradius 75.6051
lwrist -27.0442
lhand -10.0393 1.53476
lfingers 7.12502
lthumb 15.9458 30.8984
rfemur -43.5645 2.33497 11.0836
rtibia 24.0959
rfoot 27.3679 -22.2142
rtoes -15.2784
lfemur 0.518218 -4.71117 -25.4931
ltibia 28.5367
lfoot -1.24895 22.5088
ltoes -9.53585
